<?xml version="1.0" encoding="utf-8"?>
<!-- Generator: Adobe Illustrator 21.1.0, SVG Export Plug-In . SVG Version: 6.00 Build 0)  -->
<svg version="1.1" xmlns="http://www.w3.org/2000/svg" xmlns:xlink="http://www.w3.org/1999/xlink" x="0px" y="0px"
	 viewBox="0 0 432 432" style="enable-background:new 0 0 432 432;" xml:space="preserve">
<style type="text/css">
	.st0{fill-rule:evenodd;clip-rule:evenodd;fill:#B3282D;}
	.st1{fill:#FFFFFF;}
</style>
<g id="Button">
</g>
<g id="Icon">
	<circle class="st0" cx="216" cy="216" r="174.1"/>
	<g>
		<g>
			<path class="st1" d="M216,100.9c-6,0-11-4.9-11-11c0-6,4.9-11,11-11c6,0,11,4.9,11,11C227,96,222,100.9,216,100.9z"/>
			<path class="st1" d="M188.5,100.9c-6,0-11-4.9-11-11c0-6,4.9-11,11-11c6,0,11,4.9,11,11C199.5,96,194.5,100.9,188.5,100.9z"/>
			<path class="st1" d="M243.5,100.9c-6,0-11-4.9-11-11c0-6,4.9-11,11-11c6,0,11,4.9,11,11C254.5,96,249.5,100.9,243.5,100.9z"/>
		</g>
		<g>
			<path class="st1" d="M328.3,248c-6,0-11-4.9-11-11c0-6,4.9-11,11-11c6,0,11,4.9,11,11C339.2,243.1,334.3,248,328.3,248z"/>
			<path class="st1" d="M279.1,248c-6,0-11-4.9-11-11c0-6,4.9-11,11-11s11,4.9,11,11C290.1,243.1,285.1,248,279.1,248z"/>
			<path class="st1" d="M254.5,248c-6,0-11-4.9-11-11c0-6,4.9-11,11-11c6,0,11,4.9,11,11C265.5,243.1,260.6,248,254.5,248z"/>
			<path class="st1" d="M303.7,248c-6,0-11-4.9-11-11c0-6,4.9-11,11-11s11,4.9,11,11C314.6,243.1,309.7,248,303.7,248z"/>
			<path class="st1" d="M103.7,248c-6,0-11-4.9-11-11c0-6,4.9-11,11-11c6,0,11,4.9,11,11C114.7,243.1,109.8,248,103.7,248z"/>
			<path class="st1" d="M152.9,248c-6,0-11-4.9-11-11c0-6,4.9-11,11-11c6,0,11,4.9,11,11C163.8,243.1,158.9,248,152.9,248z"/>
			<path class="st1" d="M177.5,248c-6,0-11-4.9-11-11c0-6,4.9-11,11-11c6,0,11,4.9,11,11C188.4,243.1,183.5,248,177.5,248z"/>
			<path class="st1" d="M128.3,248c-6,0-11-4.9-11-11c0-6,4.9-11,11-11c6,0,11,4.9,11,11C139.3,243.1,134.3,248,128.3,248z"/>
		</g>
		<g>
			<path class="st1" d="M340.5,227c-6,0-11-4.9-11-11c0-6,4.9-11,11-11c6,0,11,4.9,11,11C351.5,222,346.6,227,340.5,227z"/>
			<path class="st1" d="M291.8,227c-6,0-11-4.9-11-11c0-6,4.9-11,11-11s11,4.9,11,11C302.7,222,297.8,227,291.8,227z"/>
			<path class="st1" d="M267.4,227c-6,0-11-4.9-11-11c0-6,4.9-11,11-11s11,4.9,11,11C278.4,222,273.4,227,267.4,227z"/>
			<path class="st1" d="M316.2,227c-6,0-11-4.9-11-11c0-6,4.9-11,11-11s11,4.9,11,11C327.1,222,322.2,227,316.2,227z"/>
			<path class="st1" d="M91.5,227c-6,0-11-4.9-11-11c0-6,4.9-11,11-11c6,0,11,4.9,11,11C102.4,222,97.5,227,91.5,227z"/>
			<path class="st1" d="M140.2,227c-6,0-11-4.9-11-11c0-6,4.9-11,11-11c6,0,11,4.9,11,11C151.2,222,146.3,227,140.2,227z"/>
			<path class="st1" d="M164.6,227c-6,0-11-4.9-11-11c0-6,4.9-11,11-11c6,0,11,4.9,11,11C175.6,222,170.6,227,164.6,227z"/>
			<path class="st1" d="M115.8,227c-6,0-11-4.9-11-11c0-6,4.9-11,11-11c6,0,11,4.9,11,11C126.8,222,121.9,227,115.8,227z"/>
		</g>
		<g>
			<path class="st1" d="M328.3,206c-6,0-11-4.9-11-11c0-6,4.9-11,11-11c6,0,11,4.9,11,11C339.2,201,334.3,206,328.3,206z"/>
			<path class="st1" d="M279.1,206c-6,0-11-4.9-11-11c0-6,4.9-11,11-11s11,4.9,11,11C290.1,201,285.1,206,279.1,206z"/>
			<path class="st1" d="M254.5,206c-6,0-11-4.9-11-11c0-6,4.9-11,11-11c6,0,11,4.9,11,11C265.5,201,260.6,206,254.5,206z"/>
			<path class="st1" d="M303.7,206c-6,0-11-4.9-11-11c0-6,4.9-11,11-11s11,4.9,11,11C314.6,201,309.7,206,303.7,206z"/>
			<path class="st1" d="M103.7,206c-6,0-11-4.9-11-11c0-6,4.9-11,11-11c6,0,11,4.9,11,11C114.7,201,109.8,206,103.7,206z"/>
			<path class="st1" d="M152.9,206c-6,0-11-4.9-11-11c0-6,4.9-11,11-11c6,0,11,4.9,11,11C163.8,201,158.9,206,152.9,206z"/>
			<path class="st1" d="M177.5,206c-6,0-11-4.9-11-11c0-6,4.9-11,11-11c6,0,11,4.9,11,11C188.4,201,183.5,206,177.5,206z"/>
			<path class="st1" d="M128.3,206c-6,0-11-4.9-11-11c0-6,4.9-11,11-11c6,0,11,4.9,11,11C139.3,201,134.3,206,128.3,206z"/>
		</g>
		<g>
			<path class="st1" d="M177.7,121.9c-6,0-11-4.9-11-11c0-6,4.9-11,11-11s11,4.9,11,11C188.7,117,183.7,121.9,177.7,121.9z"/>
			<path class="st1" d="M152.2,121.9c-6,0-11-4.9-11-11c0-6,4.9-11,11-11c6,0,11,4.9,11,11C163.1,117,158.2,121.9,152.2,121.9z"/>
			<path class="st1" d="M203.2,121.9c-6,0-11-4.9-11-11c0-6,4.9-11,11-11c6,0,11,4.9,11,11C214.2,117,209.3,121.9,203.2,121.9z"/>
			<path class="st1" d="M254.3,121.9c-6,0-11-4.9-11-11c0-6,4.9-11,11-11c6,0,11,4.9,11,11C265.3,117,260.3,121.9,254.3,121.9z"/>
			<path class="st1" d="M228.8,121.9c-6,0-11-4.9-11-11c0-6,4.9-11,11-11c6,0,11,4.9,11,11C239.7,117,234.8,121.9,228.8,121.9z"/>
			<path class="st1" d="M279.8,121.9c-6,0-11-4.9-11-11c0-6,4.9-11,11-11s11,4.9,11,11C290.8,117,285.9,121.9,279.8,121.9z"/>
		</g>
		<g>
			<path class="st1" d="M292.1,142.9c-6,0-11-4.9-11-11c0-6,4.9-11,11-11c6,0,11,4.9,11,11C303.1,138,298.2,142.9,292.1,142.9z"/>
			<path class="st1" d="M266.7,142.9c-6,0-11-4.9-11-11c0-6,4.9-11,11-11c6,0,11,4.9,11,11C277.7,138,272.8,142.9,266.7,142.9z"/>
			<path class="st1" d="M317.5,142.9c-6,0-11-4.9-11-11c0-6,4.9-11,11-11s11,4.9,11,11C328.4,138,323.5,142.9,317.5,142.9z"/>
			<path class="st1" d="M139.9,142.9c-6,0-11-4.9-11-11c0-6,4.9-11,11-11c6,0,11,4.9,11,11C150.9,138,145.9,142.9,139.9,142.9z"/>
			<path class="st1" d="M114.5,142.9c-6,0-11-4.9-11-11c0-6,4.9-11,11-11c6,0,11,4.9,11,11C125.5,138,120.6,142.9,114.5,142.9z"/>
			<path class="st1" d="M165.3,142.9c-6,0-11-4.9-11-11c0-6,4.9-11,11-11c6,0,11,4.9,11,11C176.2,138,171.3,142.9,165.3,142.9z"/>
			<path class="st1" d="M216,142.9c-6,0-11-4.9-11-11c0-6,4.9-11,11-11c6,0,11,4.9,11,11C227,138,222,142.9,216,142.9z"/>
			<path class="st1" d="M190.6,142.9c-6,0-11-4.9-11-11c0-6,4.9-11,11-11c6,0,11,4.9,11,11C201.6,138,196.7,142.9,190.6,142.9z"/>
			<path class="st1" d="M241.4,142.9c-6,0-11-4.9-11-11c0-6,4.9-11,11-11c6,0,11,4.9,11,11C252.3,138,247.4,142.9,241.4,142.9z"/>
		</g>
		<g>
			<path class="st1" d="M253.4,163.9c-6,0-11-4.9-11-11c0-6,4.9-11,11-11c6,0,11,4.9,11,11C264.4,159,259.5,163.9,253.4,163.9z"/>
			<path class="st1" d="M303.3,163.9c-6,0-11-4.9-11-11c0-6,4.9-11,11-11s11,4.9,11,11C314.3,159,309.4,163.9,303.3,163.9z"/>
			<path class="st1" d="M278.4,163.9c-6,0-11-4.9-11-11c0-6,4.9-11,11-11s11,4.9,11,11C289.3,159,284.4,163.9,278.4,163.9z"/>
			<path class="st1" d="M328.3,163.9c-6,0-11-4.9-11-11c0-6,4.9-11,11-11c6,0,11,4.9,11,11C339.2,159,334.3,163.9,328.3,163.9z"/>
			<path class="st1" d="M128.7,163.9c-6,0-11-4.9-11-11c0-6,4.9-11,11-11c6,0,11,4.9,11,11C139.6,159,134.7,163.9,128.7,163.9z"/>
			<path class="st1" d="M103.7,163.9c-6,0-11-4.9-11-11c0-6,4.9-11,11-11c6,0,11,4.9,11,11C114.7,159,109.8,163.9,103.7,163.9z"/>
			<path class="st1" d="M153.6,164c-6,0-11-4.9-11-11c0-6,4.9-11,11-11c6,0,11,4.9,11,11C164.6,159.1,159.7,164,153.6,164z"/>
			<path class="st1" d="M203.5,163.9c-6,0-11-4.9-11-11c0-6,4.9-11,11-11s11,4.9,11,11C214.5,159,209.6,163.9,203.5,163.9z"/>
			<path class="st1" d="M178.6,163.9c-6,0-11-4.9-11-11c0-6,4.9-11,11-11c6,0,11,4.9,11,11C189.5,159,184.6,163.9,178.6,163.9z"/>
			<path class="st1" d="M228.5,163.9c-6,0-11-4.9-11-11c0-6,4.9-11,11-11c6,0,11,4.9,11,11C239.4,159,234.5,163.9,228.5,163.9z"/>
		</g>
		<g>
			<path class="st1" d="M240.9,184.9c-6,0-11-4.9-11-11c0-6,4.9-11,11-11c6,0,11,4.9,11,11C251.9,180,247,184.9,240.9,184.9z"/>
			<path class="st1" d="M340.5,184.9c-6,0-11-4.9-11-11c0-6,4.9-11,11-11c6,0,11,4.9,11,11C351.5,180,346.6,184.9,340.5,184.9z"/>
			<path class="st1" d="M290.7,184.9c-6,0-11-4.9-11-11c0-6,4.9-11,11-11s11,4.9,11,11C301.7,180,296.8,184.9,290.7,184.9z"/>
			<path class="st1" d="M265.8,184.9c-6,0-11-4.9-11-11c0-6,4.9-11,11-11s11,4.9,11,11C276.8,180,271.9,184.9,265.8,184.9z"/>
			<path class="st1" d="M315.6,184.9c-6,0-11-4.9-11-11c0-6,4.9-11,11-11s11,4.9,11,11C326.6,180,321.7,184.9,315.6,184.9z"/>
			<path class="st1" d="M116.4,184.9c-6,0-11-4.9-11-11c0-6,4.9-11,11-11s11,4.9,11,11C127.3,180,122.4,184.9,116.4,184.9z"/>
			<path class="st1" d="M91.5,184.9c-6,0-11-4.9-11-11c0-6,4.9-11,11-11c6,0,11,4.9,11,11C102.4,180,97.5,184.9,91.5,184.9z"/>
			<path class="st1" d="M141.3,184.9c-6,0-11-4.9-11-11c0-6,4.9-11,11-11c6,0,11,4.9,11,11C152.2,180,147.3,184.9,141.3,184.9z"/>
			<path class="st1" d="M191.1,184.9c-6,0-11-4.9-11-11c0-6,4.9-11,11-11s11,4.9,11,11C202.1,180,197.1,184.9,191.1,184.9z"/>
			<path class="st1" d="M166.2,184.9c-6,0-11-4.9-11-11c0-6,4.9-11,11-11c6,0,11,4.9,11,11C177.2,180,172.2,184.9,166.2,184.9z"/>
			<path class="st1" d="M216,184.9c-6,0-11-4.9-11-11c0-6,4.9-11,11-11c6,0,11,4.9,11,11C227,180,222,184.9,216,184.9z"/>
		</g>
		<g>
			<path class="st1" d="M216,353c-6,0-11-4.9-11-11c0-6,4.9-11,11-11c6,0,11,4.9,11,11C227,348.1,222,353,216,353z"/>
			<path class="st1" d="M243.5,353c-6,0-11-4.9-11-11c0-6,4.9-11,11-11c6,0,11,4.9,11,11C254.5,348.1,249.5,353,243.5,353z"/>
			<path class="st1" d="M188.5,353c-6,0-11-4.9-11-11c0-6,4.9-11,11-11c6,0,11,4.9,11,11C199.5,348.1,194.5,353,188.5,353z"/>
		</g>
		<g>
			<path class="st1" d="M254.3,332c-6,0-11-4.9-11-11s4.9-11,11-11c6,0,11,4.9,11,11S260.3,332,254.3,332z"/>
			<path class="st1" d="M279.8,332c-6,0-11-4.9-11-11s4.9-11,11-11s11,4.9,11,11S285.9,332,279.8,332z"/>
			<path class="st1" d="M228.8,332c-6,0-11-4.9-11-11s4.9-11,11-11c6,0,11,4.9,11,11S234.8,332,228.8,332z"/>
			<path class="st1" d="M177.7,332c-6,0-11-4.9-11-11s4.9-11,11-11s11,4.9,11,11S183.7,332,177.7,332z"/>
			<path class="st1" d="M203.2,332c-6,0-11-4.9-11-11s4.9-11,11-11c6,0,11,4.9,11,11S209.3,332,203.2,332z"/>
			<path class="st1" d="M152.2,332c-6,0-11-4.9-11-11s4.9-11,11-11c6,0,11,4.9,11,11S158.2,332,152.2,332z"/>
		</g>
		<g>
			<path class="st1" d="M139.9,311c-6,0-11-4.9-11-11s4.9-11,11-11c6,0,11,4.9,11,11S145.9,311,139.9,311z"/>
			<path class="st1" d="M165.3,311c-6,0-11-4.9-11-11s4.9-11,11-11c6,0,11,4.9,11,11S171.3,311,165.3,311z"/>
			<path class="st1" d="M114.5,311c-6,0-11-4.9-11-11s4.9-11,11-11c6,0,11,4.9,11,11S120.6,311,114.5,311z"/>
			<path class="st1" d="M292.1,311c-6,0-11-4.9-11-11s4.9-11,11-11c6,0,11,4.9,11,11S298.2,311,292.1,311z"/>
			<path class="st1" d="M317.5,311c-6,0-11-4.9-11-11s4.9-11,11-11s11,4.9,11,11S323.5,311,317.5,311z"/>
			<path class="st1" d="M266.7,311c-6,0-11-4.9-11-11s4.9-11,11-11c6,0,11,4.9,11,11C277.7,306.1,272.8,311,266.7,311z"/>
			<path class="st1" d="M216,311c-6,0-11-4.9-11-11s4.9-11,11-11c6,0,11,4.9,11,11S222,311,216,311z"/>
			<path class="st1" d="M241.4,311c-6,0-11-4.9-11-11s4.9-11,11-11c6,0,11,4.9,11,11S247.4,311,241.4,311z"/>
			<path class="st1" d="M190.6,311c-6,0-11-4.9-11-11s4.9-11,11-11c6,0,11,4.9,11,11S196.7,311,190.6,311z"/>
		</g>
		<g>
			<path class="st1" d="M178.6,290c-6,0-11-4.9-11-11s4.9-11,11-11c6,0,11,4.9,11,11S184.6,290,178.6,290z"/>
			<path class="st1" d="M128.7,290c-6,0-11-4.9-11-11s4.9-11,11-11c6,0,11,4.9,11,11S134.7,290,128.7,290z"/>
			<path class="st1" d="M153.6,289.9c-6,0-11-4.9-11-11s4.9-11,11-11c6,0,11,4.9,11,11S159.7,289.9,153.6,289.9z"/>
			<path class="st1" d="M103.7,290c-6,0-11-4.9-11-11s4.9-11,11-11c6,0,11,4.9,11,11S109.8,290,103.7,290z"/>
			<path class="st1" d="M303.3,290c-6,0-11-4.9-11-11s4.9-11,11-11s11,4.9,11,11S309.4,290,303.3,290z"/>
			<path class="st1" d="M328.3,290c-6,0-11-4.9-11-11s4.9-11,11-11c6,0,11,4.9,11,11S334.3,290,328.3,290z"/>
			<path class="st1" d="M278.4,290c-6,0-11-4.9-11-11s4.9-11,11-11s11,4.9,11,11C289.3,285.1,284.4,290,278.4,290z"/>
			<path class="st1" d="M228.5,290c-6,0-11-4.9-11-11s4.9-11,11-11c6,0,11,4.9,11,11S234.5,290,228.5,290z"/>
			<path class="st1" d="M253.4,290c-6,0-11-4.9-11-11s4.9-11,11-11c6,0,11,4.9,11,11S259.5,290,253.4,290z"/>
			<path class="st1" d="M203.5,290c-6,0-11-4.9-11-11s4.9-11,11-11s11,4.9,11,11S209.6,290,203.5,290z"/>
		</g>
		<g>
			<path class="st1" d="M191.1,269c-6,0-11-4.9-11-11c0-6,4.9-11,11-11s11,4.9,11,11S197.1,269,191.1,269z"/>
			<path class="st1" d="M91.5,269c-6,0-11-4.9-11-11s4.9-11,11-11c6,0,11,4.9,11,11S97.5,269,91.5,269z"/>
			<path class="st1" d="M141.3,269c-6,0-11-4.9-11-11s4.9-11,11-11c6,0,11,4.9,11,11S147.3,269,141.3,269z"/>
			<path class="st1" d="M166.2,269c-6,0-11-4.9-11-11s4.9-11,11-11c6,0,11,4.9,11,11S172.2,269,166.2,269z"/>
			<path class="st1" d="M116.4,269c-6,0-11-4.9-11-11s4.9-11,11-11s11,4.9,11,11S122.4,269,116.4,269z"/>
			<path class="st1" d="M315.6,269c-6,0-11-4.9-11-11s4.9-11,11-11s11,4.9,11,11S321.7,269,315.6,269z"/>
			<path class="st1" d="M340.5,269c-6,0-11-4.9-11-11s4.9-11,11-11c6,0,11,4.9,11,11S346.6,269,340.5,269z"/>
			<path class="st1" d="M290.7,269c-6,0-11-4.9-11-11c0-6,4.9-11,11-11s11,4.9,11,11S296.8,269,290.7,269z"/>
			<path class="st1" d="M240.9,269c-6,0-11-4.9-11-11s4.9-11,11-11c6,0,11,4.9,11,11S247,269,240.9,269z"/>
			<path class="st1" d="M265.8,269c-6,0-11-4.9-11-11s4.9-11,11-11s11,4.9,11,11S271.9,269,265.8,269z"/>
			<path class="st1" d="M216,269c-6,0-11-4.9-11-11s4.9-11,11-11c6,0,11,4.9,11,11S222,269,216,269z"/>
		</g>
	</g>
</g>
</svg>
